<svg width="30" height="29" viewBox="0 0 30 32" fill="none" xmlns="http://www.w3.org/2000/svg">
  <path d="M11.4764 24.4081L9.071 22.0033H13.4518C14.7051 22.0033 15.9254 21.7074 17.1281 21.0979C19.3954 19.9478 20.53 17.9632 20.53 15.1245C20.53 12.2857 19.3954 10.2992 17.1281 9.1511C15.9429 8.54153 14.7051 8.24563 13.4518 8.24563H7.76513V31.427L10.0305 30.0441C11.5952 30.6064 13.2786 30.9161 15.034 30.9161C15.9818 30.9161 16.9082 30.8234 17.8073 30.6517L11.4764 24.4081Z" fill="black"/>
  <path d="M15.7599 0.591484V0.57373H1.51992C0.718104 0.57373 0.0661432 1.23262 0.0661432 2.04735V15.7459C0.0661432 20.3443 2.08627 24.4613 5.27407 27.2429V5.73633H13.4518C15.0496 5.73633 16.6649 6.13679 18.2802 6.93771C21.4758 8.5218 23.0736 11.258 23.0736 15.1245C23.0736 18.3992 21.9215 20.871 19.6036 22.5261C18.144 23.5539 16.6318 24.1635 15.0671 24.3548L22.2329 31.425L22.5229 28.8763C26.9912 26.2526 30 21.3543 30 15.7439C30 7.61238 23.6886 0.976164 15.7599 0.591484Z" fill="black"/>
  <path d="M17.13 9.1511C15.9448 8.54153 14.707 8.24563 13.4537 8.24563H7.76705V19.208C10.1375 18.8431 12.5643 18.6537 15.034 18.6537C16.5753 18.6537 18.0992 18.7267 19.6036 18.8707C20.2205 17.8508 20.5338 16.604 20.5338 15.1225C20.5319 12.2857 19.3973 10.2992 17.13 9.1511Z" fill="black"/>
  <path d="M15.7599 0.591484V0.57373H1.51992C0.718104 0.57373 0.0661432 1.23262 0.0661432 2.04735V15.7459C0.0661432 17.5134 0.36587 19.2119 0.914686 20.7901C2.34122 20.3482 3.79499 19.9714 5.27407 19.6617V5.7383H13.4518C15.0496 5.7383 16.6649 6.13876 18.2802 6.93968C21.4758 8.52377 23.0736 11.2599 23.0736 15.1264C23.0736 16.6671 22.8148 18.0263 22.3049 19.21C24.6461 19.571 26.9328 20.0997 29.1514 20.7881C29.7003 19.21 30 17.5134 30 15.7439C30 7.61238 23.6886 0.976164 15.7599 0.591484Z" fill="black"/>
  <path d="M5.2721 5.73633H6.76286C9.44855 5.2609 12.2121 5.01037 15.0321 5.01037C19.1326 5.01037 23.1106 5.53314 26.9095 6.51752C24.3114 3.08697 20.3023 0.810456 15.758 0.591484V0.57373H1.51992C0.718104 0.57373 0.0661432 1.23262 0.0661432 2.04735V7.43483C1.76124 6.86866 3.49916 6.39916 5.2721 6.02631V5.73633Z" fill="black"/>
  <path d="M18.9536 19.7406C20.0045 18.5925 20.5319 17.0577 20.5319 15.1245C20.5319 13.9882 20.347 12.992 19.985 12.1299C19.3097 14.4044 18.9458 16.8151 18.9458 19.3126C18.9458 19.4566 18.9497 19.5986 18.9536 19.7406Z" fill="black"/>
  <path d="M24.2782 3.8149C23.0152 5.42463 21.9448 7.19613 21.1021 9.09388C22.4138 10.6365 23.0736 12.6467 23.0736 15.1245C23.0736 18.3992 21.9215 20.871 19.6036 22.5261C19.4654 22.6228 19.3272 22.7135 19.1871 22.8023C19.5939 25.7416 20.9056 28.9078 22.2309 31.425L22.5209 28.8763C26.9892 26.2526 29.998 21.3543 29.998 15.7439C29.9999 10.9029 27.7619 6.59248 24.2782 3.8149Z" fill="black"/>
  <path d="M8.17381 5.69129C6.95616 3.72946 5.47319 2.13959 3.7722 0.57373H1.53642C0.689005 0.57373 -3.05176e-05 1.04169 -3.05176e-05 1.86762V15.7544C-3.05176e-05 20.35 1.97041 24.4116 5.21403 27.2054V5.69129H8.17381Z" fill="black"/>
  <path d="M7.76513 31.427C7.76513 31.427 10.3321 27.6019 11.0152 23.9465L9.071 22.0033L11.3577 22.0033C11.5095 20.8848 11.5874 19.7426 11.5874 18.5846C11.5874 14.8957 10.7953 11.3941 9.37459 8.24366H7.76318V31.427L7.76513 31.427Z" fill="black"/>
  <path d="M18.9535 19.7327C20.0006 18.5866 20.526 17.0518 20.526 15.1245C20.526 13.9941 20.3431 12.9999 19.983 12.1398C19.3097 14.4123 18.9477 16.819 18.9477 19.3126C18.9457 19.4526 18.9496 19.5927 18.9535 19.7327Z" fill="black"/>
  <path d="M24.2782 3.8149C23.0152 5.4266 21.9429 7.20007 21.1002 9.0998C22.4099 10.6425 23.0677 12.6507 23.0677 15.1245C23.0677 18.3992 21.9156 20.871 19.5978 22.5261C19.4615 22.6208 19.3253 22.7096 19.1891 22.7983C19.5978 25.7456 20.9017 28.9039 22.2328 31.427L22.5228 28.8782C26.9912 26.2545 29.9999 21.3563 29.9999 15.7459C29.9999 10.9029 27.7619 6.59248 24.2782 3.8149Z" fill="black"/>
</svg>
